<?xml version="1.0" encoding="utf-8"?>
<!-- Generator: Adobe Illustrator 16.0.0, SVG Export Plug-In . SVG Version: 6.00 Build 0)  -->
<!DOCTYPE svg PUBLIC "-//W3C//DTD SVG 1.1//EN" "http://www.w3.org/Graphics/SVG/1.1/DTD/svg11.dtd">
<svg version="1.1" id="Layer_1" xmlns="http://www.w3.org/2000/svg" xmlns:xlink="http://www.w3.org/1999/xlink" x="0px" y="0px"
	 width="235.669px" height="235.667px" viewBox="0 0 235.669 235.667" enable-background="new 0 0 235.669 235.667"
	 xml:space="preserve">
<linearGradient id="SVGID_1_" gradientUnits="userSpaceOnUse" x1="117.8345" y1="0" x2="117.8345" y2="235.667">
	<stop  offset="0" style="stop-color:#8CC63F"/>
	<stop  offset="1" style="stop-color:#006837"/>
</linearGradient>
<circle fill-rule="evenodd" clip-rule="evenodd" fill="url(#SVGID_1_)" cx="117.834" cy="117.834" r="117.834"/>
<path fill="#FFFFFF" d="M194.963,72.121c3.702,2.878,7.729,0.629,12.145,0.504c-2.525,4.15-6.723,5.944-9.285,9.312
	c-3.598,3.035-7.865,5.499-9.051,10.594c-3.664,5.095-4.752,11.558-8.75,16.476c-2.788,2.374-6.13,4.441-4.988,8.994
	c-0.093,3.973-0.186,7.946-0.279,11.92c-1.598,3.277-4.658,5.338-6.783,8.17c-1.277,1.703-2.08,3.658-2.227,5.829
	c-0.865,3.028-1.73,6.058-2.595,9.086c-1.562,2.263-3.124,4.524-4.687,6.787c-2.058,4.973-6.684,7.897-9.671,12.128
	c-4.941,4.689-9.883,9.379-14.824,14.068c-5.216,5.285-7.873,11.772-8.93,19.012c-0.606,2.38-1.401,4.731-1.771,7.148
	c-0.421,2.756-1.033,5.832-4.247,5.526c-3.123-0.297-5.635-2.419-6.08-6.165c-0.345-2.904,0.741-5.949-0.85-8.723
	c-0.321-4.793-4.917-7.4-6.027-11.791c-1.244-5.445-5.95-8.973-7.801-14.081c0.808-4.978-2.338-8.388-4.782-12.077
	c-0.134-1.287-0.269-2.573-0.403-3.859l0.469,0.017l0.469-0.004c14.234,2.513,22.467-3.078,24.151-16.401
	c0.156-0.51,0.311-1.019,0.466-1.528c0.116-1.688,0.233-3.374,0.349-5.062c0.298-0.651,0.596-1.303,0.894-1.953
	c5.146,8.398,4.131,17.959,4.793,27.369c4.547-5.581,6.115-14.572,16.306-11.18c-0.732-7.01-3.148-12.539-7.862-18.469
	c-0.889-2.547-2.917-4.371-4.097-6.033c4.605,0,9.329,0,14.053,0l0.412,0.165l0.434-0.092c4.156,0.092,7.892-0.138,11.154-2.67
	c4.221-2.989,5.66-7.143,5.082-12.141c0.01-5.396-2.564-9.276-7.053-12.035c1.111-4.507,1.144-8.86-2.412-12.394
	c-1.736-1.725-3.777-3.143-5.681-4.7c-0.038-0.375-0.077-0.75-0.116-1.125c0.961-3.894,3.715-6.015,6.247-9.458
	c2.422-3.303,5.153-6.544,9.222-8.123c4.943,0.074,8.945-2.379,13.045-4.707c6.59-3.742,10.677-3.183,16.402,1.943
	C191.22,65.802,191.355,69.882,194.963,72.121z M180.865,78.136c-0.408-2.754-1.896-4.665-4.762-4.724
	c-2.639-0.054-4.426,1.651-4.62,4.243c-0.217,2.881,1.572,4.803,4.363,5.008C178.742,82.876,180.233,80.862,180.865,78.136z"/>
<path fill="#FFFFFF" d="M33.153,77.04c0.843-4.263,2.556-6.488,5.233-8.912c5.795-4.939,14.899-4.055,21.379,2.042
	c1.926,1.812,3.334,4.023,4.972,6.739c0.841-3.115,1.846-5.615,2.138-8.196c0.478-4.229,3.368-5.202,6.752-5.69
	c5.344-0.771,10.095,0.717,14.331,3.992c2.895,2.675,4.691,5.49,1.107,9.229c-2.358-1.892-4.474-3.981-6.945-5.49
	c-4.965-3.032-9.297-0.903-9.838,4.888c-0.256,2.74,0.361,5.564,0.582,8.35c-1.72,4.591-1.784,9.828-5.118,13.984
	c-2.936-3.541-4.775-7.336-6.876-10.967c-2.723-4.112-3.499-10.449-11.022-9.361c-0.128-4.71-4.201-1.404-5.826-3.353
	c-4.316,5.228-3.746,9.993-0.07,14.725c0.215,0.933,0.431,1.866,0.644,2.791c-1.877,0.595-3.392-0.428-5.017-0.608
	c-2.345-0.26-5.053-1.909-6.798,1.004c-1.592,2.658-1.124,5.453,0.29,8.098c2.771,5.182,7.809,5.135,12.611,5.166
	c6.111,0.041,12.159-1.954,18.33-0.68c2.588,0.504,2.391,1.877,0.986,3.449c-2.637,2.951-5.346,5.837-8.024,8.75
	c-3.301,2.07-5.826,4.946-7.583,8.324c-1.798,3.454-3.017,7.386,0.404,10.518c3.28,3.002,7.063,1.922,10.624,0.087
	c2.131-1.099,5.025-3.022,7.139-4.275c-0.235,3.015-0.393,6.46,0.233,8.574c0.585,3.095,3.523,5.97,6.585,9.157
	c-6.5,0.625-8.967,0.554-13.698-4.463c-4.088,0.935-8.345,0.979-12.545-0.322c-4.309-2.323-7.2-5.764-8.343-10.582
	c-0.372-5.332,0.937-10.269,3.513-14.906c1.586-1.396,2.943-2.953,3.897-5.355c-9.123-0.477-17.817-1.347-22.192-10.744
	c-1.926-4.187-2.803-8.623-0.704-12.467c1.79-3.645,4.145-6.723,8.392-7.971C32.855,80.628,33.004,78.835,33.153,77.04z"/>
<path fill="#FFFFFF" d="M77.182,86.325c3.278-3.064,6.978-5.018,11.531-4.293c9.066-10.537,13.743-12.131,23.25-8.014
	c5.283,4.486,9.449,9.512,8.199,17.449c3.689-3.201,7.068-6.014,11.073-8.098c4.568-2.377,8.612-1.601,13.654-0.626
	c0.039,0.375,0.078,0.75,0.116,1.125c-3.498,1.819-7.258,3.213-10.482,5.48c-4.753,3.343-7.832,8.283-9.687,11.587
	c-3.113,4.321-6.675,8.164-11.659,11.307c-0.252-3.454-0.462-6.334-0.672-9.214c0.154-4.433-0.251-8.817-1.147-13.159
	c0.226-3.047-2.772-2.834-4.388-4.309c0.155-0.82,0.328-1.735,0.527-2.789c-1.443-1.08-4.127-0.091-4.321-3
	c-4.5,2.395-7.691,5.016-7.01,10.231c-0.2,1.89-0.4,3.78-0.606,5.727c-2.126-0.298-2.947-1.921-4.278-2.788
	c-1.831-1.191-3.222-3.873-5.913-2.518c-2.898,1.46-4.068,4.299-4.113,7.395c-0.043,2.904,0.91,5.514,3.765,6.971
	c2.057,2.435,4.807,4.057,7.673,5.002c5.431,1.793,10.509,4.172,15.292,7.254c0.415,2.371-1.535,2.568-2.974,3.131
	c-3.174,1.242-6.385,2.391-9.581,3.577c-5.317,0.724-10.23,2.419-13.867,6.566c-3.404,3.882-3.079,6.413,0.895,9.874
	c4.4,3.786,9.471,1.1,15.278,1.356c-4.963,6.141-2.49,13.047-3.721,19.441l-0.469,0.004l-0.469-0.017
	c-2.889-0.604-4.494-2.479-6.051-4.987c-0.481-1.745-0.962-3.489-1.557-5.644c-6.539-1.775-13.059-5.004-14.584-12.342
	c-0.823-7.773,5.109-15.852,13.502-19.797c1.288-0.224,2.642-0.309,3.58-1.789c-6.02-3.141-11.786-6.56-14.242-13.41
	C72.396,96.935,73.118,91.284,77.182,86.325z"/>
<path fill-rule="evenodd" clip-rule="evenodd" fill="#41893D" d="M118.167,144.591c0.156-0.51,0.311-1.019,0.466-1.528
	C118.478,143.572,118.323,144.081,118.167,144.591z"/>
<path fill-rule="evenodd" clip-rule="evenodd" fill="#6FAF37" d="M143.068,127.735c0.322-0.438,0.6-0.364,0.846,0.073l-0.434,0.092
	L143.068,127.735z"/>
</svg>
